<svg width="262" height="269" viewBox="0 0 262 269" fill="none" xmlns="http://www.w3.org/2000/svg">
<g clip-path="url(#clip0_151_2070)">
<path d="M188.155 168.938C161.497 215.667 102.447 231.677 56.2488 204.693C43.2988 197.122 32.7212 186.983 24.8128 175.275C24.8128 175.275 24.8128 175.275 24.7798 175.309C21.5835 170.939 15.5863 169.505 10.8083 172.307C6.19501 175.008 4.3497 180.645 6.16205 185.548C16.9373 212.131 36.1153 235.479 62.6085 250.955C126.173 288.112 207.432 266.065 244.14 201.725C280.848 137.418 259.067 55.1675 195.47 18.0112C169.01 2.5349 139.452 -2.63497 111.311 1.23409C106.237 2.06794 102.315 6.50403 102.315 11.9074C102.315 17.3107 106.5 22.047 111.872 22.6807C111.872 22.6807 111.872 22.6807 111.872 22.7141C125.843 23.7814 139.815 27.984 152.765 35.5554C198.93 62.5387 214.78 122.309 188.122 169.038L188.188 168.905L188.155 168.938Z" fill="#00A73C"/>
<path d="M126.337 100.362C139.65 108.134 144.197 125.378 136.519 138.853C128.842 152.328 111.805 156.931 98.5258 149.159C85.2133 141.388 80.6659 124.144 88.3437 110.669C96.0215 97.1935 113.058 92.5907 126.37 100.362H126.337Z" fill="#00A73C"/>
<path d="M42.343 50.7315C42.343 35.1552 54.7988 22.5474 70.1544 22.5474C85.5099 22.5474 97.9657 35.1552 97.9657 50.7315C97.9657 66.3078 85.5099 78.8823 70.1544 78.8823C54.7988 78.8823 42.343 66.2745 42.343 50.7315Z" fill="#00A73C"/>
<path d="M41.7498 149.026C28.4372 156.797 11.4011 152.194 3.72335 138.719C-3.95443 125.244 0.592921 108 13.9055 100.229C27.218 92.4574 44.2211 97.0602 51.9319 110.535C59.6096 124.01 55.0623 141.254 41.7498 149.026Z" fill="#00A73C"/>
</g>
<defs>
<clipPath id="clip0_151_2070">
<rect width="262" height="269" fill="white"/>
</clipPath>
</defs>
</svg>
